<svg width="32" height="32" viewBox="0 0 32 32" fill="none" xmlns="http://www.w3.org/2000/svg">
<path d="M16.2731 6C10.5972 5.99771 6 10.5926 6 16.2639C6 20.7487 8.87583 24.5609 12.8809 25.961C13.4202 26.0964 13.3376 25.7131 13.3376 25.4515V23.6727C10.2231 24.0376 10.0969 21.9766 9.888 21.6323C9.46569 20.9116 8.46729 20.728 8.76566 20.3837C9.47487 20.0188 10.1978 20.4756 11.0356 21.7126C11.6415 22.6101 12.8235 22.4586 13.4225 22.3094C13.5534 21.77 13.8334 21.288 14.219 20.9139C10.992 20.3356 9.647 18.3663 9.647 16.0252C9.647 14.8891 10.0211 13.8448 10.7556 13.0025C10.2874 11.614 10.7992 10.4251 10.868 10.2483C12.2015 10.129 13.5878 11.2031 13.6957 11.288C14.4531 11.0838 15.3183 10.9759 16.2869 10.9759C17.26 10.9759 18.1276 11.0884 18.8919 11.2949C19.1512 11.0975 20.4365 10.1749 21.6759 10.2874C21.7425 10.4641 22.2428 11.6254 21.8022 12.9956C22.5458 13.8403 22.9245 14.8937 22.9245 16.0321C22.9245 18.3778 21.5703 20.3493 18.3342 20.9185C18.6114 21.1911 18.8314 21.5162 18.9816 21.8748C19.1317 22.2334 19.2089 22.6183 19.2086 23.0071V25.5892C19.227 25.7957 19.2086 26 19.5529 26C23.6176 24.6298 26.5439 20.79 26.5439 16.2662C26.5439 10.5926 21.9445 6 16.2731 6Z" fill="white" fill-opacity="0.64"/>
</svg>
