<svg width="32" height="32" viewBox="0 0 32 32" fill="none" xmlns="http://www.w3.org/2000/svg">
<path d="M9.98115 8C8.81577 8 8 8.81158 8 9.85504C8 10.8985 8.81577 11.7101 9.98115 11.7101C11.2631 11.7101 11.9623 10.8985 11.9623 9.85504C11.9623 8.81158 11.2631 8 9.98115 8Z" fill="white" fill-opacity="0.64"/>
<path d="M8.23599 13.2176H11.8487V24H8.23599V13.2176Z" fill="white" fill-opacity="0.64"/>
<path d="M20.5869 12.9849C18.6057 12.9849 17.3238 14.8399 17.3238 14.8399V13.2168H13.8277V23.9992H17.4403V17.9703C17.4403 17.6225 17.4403 17.2747 17.5569 17.0428C17.79 16.4631 18.3727 15.7674 19.305 15.7674C20.5869 15.7674 21.1696 16.8109 21.1696 18.2022V23.9992H24.7823V17.8544C24.7823 14.4921 23.0342 12.9849 20.5869 12.9849Z" fill="white" fill-opacity="0.64"/>
</svg>
